<mxfile host="app.diagrams.net" agent="Mozilla/5.0 (Windows NT 10.0; Win64; x64) AppleWebKit/537.36 (KHTML, like Gecko) Chrome/141.0.0.0 Safari/537.36" version="28.2.8">
  <diagram name="Page-1" id="_8MUOaTDDOe-5bFUh4kJ">
    <mxGraphModel dx="1310" dy="695" grid="1" gridSize="10" guides="1" tooltips="1" connect="1" arrows="1" fold="1" page="1" pageScale="1" pageWidth="850" pageHeight="1100" math="0" shadow="0">
      <root>
        <mxCell id="0" />
        <mxCell id="1" parent="0" />
        <mxCell id="Fmby5t4xRILtHEaOLWbx-1" value="" style="rounded=0;whiteSpace=wrap;html=1;" vertex="1" parent="1">
          <mxGeometry x="180" y="110" width="490" height="250" as="geometry" />
        </mxCell>
        <mxCell id="Fmby5t4xRILtHEaOLWbx-2" value="Presentation Tier" style="text;html=1;whiteSpace=wrap;strokeColor=none;fillColor=none;align=center;verticalAlign=middle;rounded=0;" vertex="1" parent="1">
          <mxGeometry x="350" y="90" width="150" height="30" as="geometry" />
        </mxCell>
        <mxCell id="Fmby5t4xRILtHEaOLWbx-3" value="" style="rounded=0;whiteSpace=wrap;html=1;" vertex="1" parent="1">
          <mxGeometry x="180" y="430" width="490" height="270" as="geometry" />
        </mxCell>
        <mxCell id="Fmby5t4xRILtHEaOLWbx-4" value="Logic (Business) Tier" style="text;html=1;whiteSpace=wrap;strokeColor=none;fillColor=none;align=center;verticalAlign=middle;rounded=0;" vertex="1" parent="1">
          <mxGeometry x="360" y="410" width="130" height="30" as="geometry" />
        </mxCell>
        <mxCell id="Fmby5t4xRILtHEaOLWbx-5" value="" style="rounded=0;whiteSpace=wrap;html=1;" vertex="1" parent="1">
          <mxGeometry x="170" y="740" width="500" height="270" as="geometry" />
        </mxCell>
        <mxCell id="Fmby5t4xRILtHEaOLWbx-6" value="Data Tier" style="text;html=1;whiteSpace=wrap;strokeColor=none;fillColor=none;align=center;verticalAlign=middle;rounded=0;" vertex="1" parent="1">
          <mxGeometry x="395" y="720" width="60" height="30" as="geometry" />
        </mxCell>
        <mxCell id="Fmby5t4xRILtHEaOLWbx-7" value="&lt;p style=&quot;margin:0px;margin-top:6px;text-align:center;&quot;&gt;&lt;/p&gt;&lt;p style=&quot;margin:0px;margin-left:8px;&quot;&gt;&lt;span style=&quot;background-color: transparent; color: light-dark(rgb(0, 0, 0), rgb(255, 255, 255));&quot;&gt;Patient Web/Mobile App&lt;/span&gt;+&amp;nbsp;&lt;/p&gt;" style="align=left;overflow=fill;html=1;dropTarget=0;whiteSpace=wrap;" vertex="1" parent="1">
          <mxGeometry x="180" y="190" width="170" height="90" as="geometry" />
        </mxCell>
        <mxCell id="Fmby5t4xRILtHEaOLWbx-8" value="" style="shape=component;jettyWidth=8;jettyHeight=4;" vertex="1" parent="Fmby5t4xRILtHEaOLWbx-7">
          <mxGeometry x="1" width="20" height="20" relative="1" as="geometry">
            <mxPoint x="-24" y="4" as="offset" />
          </mxGeometry>
        </mxCell>
        <mxCell id="Fmby5t4xRILtHEaOLWbx-9" value="&lt;p style=&quot;margin:0px;margin-top:6px;text-align:center;&quot;&gt;&lt;/p&gt;&lt;p style=&quot;margin:0px;margin-left:8px;&quot;&gt;&lt;span style=&quot;background-color: transparent; color: light-dark(rgb(0, 0, 0), rgb(255, 255, 255));&quot;&gt;Provider Dashboard&lt;/span&gt;&lt;/p&gt;" style="align=left;overflow=fill;html=1;dropTarget=0;whiteSpace=wrap;" vertex="1" parent="1">
          <mxGeometry x="350" y="190" width="160" height="90" as="geometry" />
        </mxCell>
        <mxCell id="Fmby5t4xRILtHEaOLWbx-10" value="" style="shape=component;jettyWidth=8;jettyHeight=4;" vertex="1" parent="Fmby5t4xRILtHEaOLWbx-9">
          <mxGeometry x="1" width="20" height="20" relative="1" as="geometry">
            <mxPoint x="-24" y="4" as="offset" />
          </mxGeometry>
        </mxCell>
        <mxCell id="Fmby5t4xRILtHEaOLWbx-11" value="&lt;p style=&quot;margin:0px;margin-top:6px;text-align:center;&quot;&gt;&lt;/p&gt;&lt;p style=&quot;margin:0px;margin-left:8px;&quot;&gt;&lt;span style=&quot;background-color: transparent; color: light-dark(rgb(0, 0, 0), rgb(255, 255, 255));&quot;&gt;Admin Portal&lt;/span&gt;&lt;/p&gt;" style="align=left;overflow=fill;html=1;dropTarget=0;whiteSpace=wrap;" vertex="1" parent="1">
          <mxGeometry x="510" y="190" width="160" height="90" as="geometry" />
        </mxCell>
        <mxCell id="Fmby5t4xRILtHEaOLWbx-12" value="" style="shape=component;jettyWidth=8;jettyHeight=4;" vertex="1" parent="Fmby5t4xRILtHEaOLWbx-11">
          <mxGeometry x="1" width="20" height="20" relative="1" as="geometry">
            <mxPoint x="-24" y="4" as="offset" />
          </mxGeometry>
        </mxCell>
        <mxCell id="Fmby5t4xRILtHEaOLWbx-13" value="&lt;p style=&quot;margin:0px;margin-top:6px;text-align:center;&quot;&gt;&lt;/p&gt;&lt;p style=&quot;margin:0px;margin-left:8px;&quot;&gt;&lt;span style=&quot;background-color: transparent; color: light-dark(rgb(0, 0, 0), rgb(255, 255, 255));&quot;&gt;User Management Service&lt;/span&gt;&lt;/p&gt;" style="align=left;overflow=fill;html=1;dropTarget=0;whiteSpace=wrap;" vertex="1" parent="1">
          <mxGeometry x="180" y="430" width="180" height="90" as="geometry" />
        </mxCell>
        <mxCell id="Fmby5t4xRILtHEaOLWbx-14" value="" style="shape=component;jettyWidth=8;jettyHeight=4;" vertex="1" parent="Fmby5t4xRILtHEaOLWbx-13">
          <mxGeometry x="1" width="20" height="20" relative="1" as="geometry">
            <mxPoint x="-24" y="4" as="offset" />
          </mxGeometry>
        </mxCell>
        <mxCell id="Fmby5t4xRILtHEaOLWbx-15" value="&lt;p style=&quot;margin:0px;margin-top:6px;text-align:center;&quot;&gt;&lt;/p&gt;&lt;p style=&quot;margin:0px;margin-left:8px;&quot;&gt;&lt;span style=&quot;background-color: transparent; color: light-dark(rgb(0, 0, 0), rgb(255, 255, 255));&quot;&gt;Scheduling Service&lt;/span&gt;&lt;/p&gt;" style="align=left;overflow=fill;html=1;dropTarget=0;whiteSpace=wrap;" vertex="1" parent="1">
          <mxGeometry x="490" y="430" width="180" height="90" as="geometry" />
        </mxCell>
        <mxCell id="Fmby5t4xRILtHEaOLWbx-16" value="" style="shape=component;jettyWidth=8;jettyHeight=4;" vertex="1" parent="Fmby5t4xRILtHEaOLWbx-15">
          <mxGeometry x="1" width="20" height="20" relative="1" as="geometry">
            <mxPoint x="-24" y="4" as="offset" />
          </mxGeometry>
        </mxCell>
        <mxCell id="Fmby5t4xRILtHEaOLWbx-17" value="&lt;p style=&quot;margin:0px;margin-top:6px;text-align:center;&quot;&gt;&lt;/p&gt;&lt;p style=&quot;margin:0px;margin-left:8px;&quot;&gt;&lt;span style=&quot;background-color: transparent; color: light-dark(rgb(0, 0, 0), rgb(255, 255, 255));&quot;&gt;Billing Service&lt;/span&gt;&lt;/p&gt;" style="align=left;overflow=fill;html=1;dropTarget=0;whiteSpace=wrap;" vertex="1" parent="1">
          <mxGeometry x="180" y="610" width="180" height="90" as="geometry" />
        </mxCell>
        <mxCell id="Fmby5t4xRILtHEaOLWbx-18" value="" style="shape=component;jettyWidth=8;jettyHeight=4;" vertex="1" parent="Fmby5t4xRILtHEaOLWbx-17">
          <mxGeometry x="1" width="20" height="20" relative="1" as="geometry">
            <mxPoint x="-24" y="4" as="offset" />
          </mxGeometry>
        </mxCell>
        <mxCell id="Fmby5t4xRILtHEaOLWbx-19" value="&lt;p style=&quot;margin:0px;margin-top:6px;text-align:center;&quot;&gt;&lt;/p&gt;&lt;p style=&quot;margin:0px;margin-left:8px;&quot;&gt;&lt;span style=&quot;background-color: transparent; color: light-dark(rgb(0, 0, 0), rgb(255, 255, 255));&quot;&gt;Notification Service&lt;/span&gt;&lt;/p&gt;" style="align=left;overflow=fill;html=1;dropTarget=0;whiteSpace=wrap;" vertex="1" parent="1">
          <mxGeometry x="490" y="610" width="180" height="90" as="geometry" />
        </mxCell>
        <mxCell id="Fmby5t4xRILtHEaOLWbx-20" value="" style="shape=component;jettyWidth=8;jettyHeight=4;" vertex="1" parent="Fmby5t4xRILtHEaOLWbx-19">
          <mxGeometry x="1" width="20" height="20" relative="1" as="geometry">
            <mxPoint x="-24" y="4" as="offset" />
          </mxGeometry>
        </mxCell>
        <mxCell id="Fmby5t4xRILtHEaOLWbx-21" value="&lt;p style=&quot;margin:0px;margin-top:6px;text-align:center;&quot;&gt;&lt;/p&gt;&lt;p style=&quot;margin:0px;margin-left:8px;&quot;&gt;&lt;span style=&quot;background-color: transparent; color: light-dark(rgb(0, 0, 0), rgb(255, 255, 255));&quot;&gt;Consultation Service&lt;/span&gt;&lt;/p&gt;" style="align=left;overflow=fill;html=1;dropTarget=0;whiteSpace=wrap;" vertex="1" parent="1">
          <mxGeometry x="180" y="520" width="180" height="90" as="geometry" />
        </mxCell>
        <mxCell id="Fmby5t4xRILtHEaOLWbx-22" value="" style="shape=component;jettyWidth=8;jettyHeight=4;" vertex="1" parent="Fmby5t4xRILtHEaOLWbx-21">
          <mxGeometry x="1" width="20" height="20" relative="1" as="geometry">
            <mxPoint x="-24" y="4" as="offset" />
          </mxGeometry>
        </mxCell>
        <mxCell id="Fmby5t4xRILtHEaOLWbx-23" value="&lt;p style=&quot;margin:0px;margin-top:6px;text-align:center;&quot;&gt;&lt;/p&gt;&lt;p style=&quot;margin:0px;margin-left:8px;&quot;&gt;&lt;span style=&quot;background-color: transparent; color: light-dark(rgb(0, 0, 0), rgb(255, 255, 255));&quot;&gt;EHR Service&lt;/span&gt;&lt;/p&gt;" style="align=left;overflow=fill;html=1;dropTarget=0;whiteSpace=wrap;" vertex="1" parent="1">
          <mxGeometry x="490" y="520" width="180" height="90" as="geometry" />
        </mxCell>
        <mxCell id="Fmby5t4xRILtHEaOLWbx-24" value="" style="shape=component;jettyWidth=8;jettyHeight=4;" vertex="1" parent="Fmby5t4xRILtHEaOLWbx-23">
          <mxGeometry x="1" width="20" height="20" relative="1" as="geometry">
            <mxPoint x="-24" y="4" as="offset" />
          </mxGeometry>
        </mxCell>
        <mxCell id="Fmby5t4xRILtHEaOLWbx-25" value="&lt;p style=&quot;margin:0px;margin-top:6px;text-align:center;&quot;&gt;&lt;/p&gt;&lt;p style=&quot;margin:0px;margin-left:8px;&quot;&gt;&lt;span style=&quot;background-color: transparent; color: light-dark(rgb(0, 0, 0), rgb(255, 255, 255));&quot;&gt;User Database&lt;/span&gt;&lt;/p&gt;" style="align=left;overflow=fill;html=1;dropTarget=0;whiteSpace=wrap;" vertex="1" parent="1">
          <mxGeometry x="170" y="740" width="180" height="90" as="geometry" />
        </mxCell>
        <mxCell id="Fmby5t4xRILtHEaOLWbx-26" value="" style="shape=component;jettyWidth=8;jettyHeight=4;" vertex="1" parent="Fmby5t4xRILtHEaOLWbx-25">
          <mxGeometry x="1" width="20" height="20" relative="1" as="geometry">
            <mxPoint x="-24" y="4" as="offset" />
          </mxGeometry>
        </mxCell>
        <mxCell id="Fmby5t4xRILtHEaOLWbx-27" value="&lt;p style=&quot;margin:0px;margin-top:6px;text-align:center;&quot;&gt;&lt;/p&gt;&lt;p style=&quot;margin:0px;margin-left:8px;&quot;&gt;&lt;span style=&quot;background-color: transparent; color: light-dark(rgb(0, 0, 0), rgb(255, 255, 255));&quot;&gt;Appointment Database&lt;/span&gt;&lt;/p&gt;" style="align=left;overflow=fill;html=1;dropTarget=0;whiteSpace=wrap;" vertex="1" parent="1">
          <mxGeometry x="490" y="740" width="180" height="90" as="geometry" />
        </mxCell>
        <mxCell id="Fmby5t4xRILtHEaOLWbx-28" value="" style="shape=component;jettyWidth=8;jettyHeight=4;" vertex="1" parent="Fmby5t4xRILtHEaOLWbx-27">
          <mxGeometry x="1" width="20" height="20" relative="1" as="geometry">
            <mxPoint x="-24" y="4" as="offset" />
          </mxGeometry>
        </mxCell>
        <mxCell id="Fmby5t4xRILtHEaOLWbx-29" value="&lt;p style=&quot;margin:0px;margin-top:6px;text-align:center;&quot;&gt;&lt;/p&gt;&lt;p style=&quot;margin:0px;margin-left:8px;&quot;&gt;&lt;span style=&quot;background-color: transparent; color: light-dark(rgb(0, 0, 0), rgb(255, 255, 255));&quot;&gt;EHR Database&lt;/span&gt;&lt;/p&gt;" style="align=left;overflow=fill;html=1;dropTarget=0;whiteSpace=wrap;" vertex="1" parent="1">
          <mxGeometry x="170" y="920" width="180" height="90" as="geometry" />
        </mxCell>
        <mxCell id="Fmby5t4xRILtHEaOLWbx-30" value="" style="shape=component;jettyWidth=8;jettyHeight=4;" vertex="1" parent="Fmby5t4xRILtHEaOLWbx-29">
          <mxGeometry x="1" width="20" height="20" relative="1" as="geometry">
            <mxPoint x="-24" y="4" as="offset" />
          </mxGeometry>
        </mxCell>
        <mxCell id="Fmby5t4xRILtHEaOLWbx-31" value="&lt;p style=&quot;margin:0px;margin-top:6px;text-align:center;&quot;&gt;&lt;/p&gt;&lt;p style=&quot;margin:0px;margin-left:8px;&quot;&gt;&lt;span style=&quot;background-color: transparent; color: light-dark(rgb(0, 0, 0), rgb(255, 255, 255));&quot;&gt;Billing Database&lt;/span&gt;&lt;/p&gt;" style="align=left;overflow=fill;html=1;dropTarget=0;whiteSpace=wrap;" vertex="1" parent="1">
          <mxGeometry x="490" y="920" width="180" height="90" as="geometry" />
        </mxCell>
        <mxCell id="Fmby5t4xRILtHEaOLWbx-32" value="" style="shape=component;jettyWidth=8;jettyHeight=4;" vertex="1" parent="Fmby5t4xRILtHEaOLWbx-31">
          <mxGeometry x="1" width="20" height="20" relative="1" as="geometry">
            <mxPoint x="-24" y="4" as="offset" />
          </mxGeometry>
        </mxCell>
        <mxCell id="Fmby5t4xRILtHEaOLWbx-33" value="Use" style="endArrow=open;endSize=12;dashed=1;html=1;rounded=0;exitX=0.617;exitY=-0.022;exitDx=0;exitDy=0;exitPerimeter=0;entryX=0.107;entryY=-0.022;entryDx=0;entryDy=0;entryPerimeter=0;" edge="1" parent="1" source="Fmby5t4xRILtHEaOLWbx-7" target="Fmby5t4xRILtHEaOLWbx-15">
          <mxGeometry width="160" relative="1" as="geometry">
            <mxPoint x="295" y="320" as="sourcePoint" />
            <mxPoint x="455" y="320" as="targetPoint" />
          </mxGeometry>
        </mxCell>
        <mxCell id="Fmby5t4xRILtHEaOLWbx-34" value="Use" style="endArrow=open;endSize=12;dashed=1;html=1;rounded=0;exitX=0.104;exitY=0.948;exitDx=0;exitDy=0;exitPerimeter=0;entryX=0.152;entryY=0.113;entryDx=0;entryDy=0;entryPerimeter=0;" edge="1" parent="1" source="Fmby5t4xRILtHEaOLWbx-7" target="Fmby5t4xRILtHEaOLWbx-13">
          <mxGeometry width="160" relative="1" as="geometry">
            <mxPoint x="40" y="390" as="sourcePoint" />
            <mxPoint x="200" y="390" as="targetPoint" />
          </mxGeometry>
        </mxCell>
        <mxCell id="Fmby5t4xRILtHEaOLWbx-35" value="Use" style="endArrow=open;endSize=12;dashed=1;html=1;rounded=0;exitX=0.881;exitY=1.002;exitDx=0;exitDy=0;exitPerimeter=0;entryX=0.107;entryY=0.056;entryDx=0;entryDy=0;entryPerimeter=0;" edge="1" parent="1" source="Fmby5t4xRILtHEaOLWbx-9" target="Fmby5t4xRILtHEaOLWbx-23">
          <mxGeometry width="160" relative="1" as="geometry">
            <mxPoint x="490" y="320" as="sourcePoint" />
            <mxPoint x="650" y="320" as="targetPoint" />
          </mxGeometry>
        </mxCell>
        <mxCell id="Fmby5t4xRILtHEaOLWbx-36" value="Use" style="endArrow=open;endSize=12;dashed=1;html=1;rounded=0;exitX=0.601;exitY=1.056;exitDx=0;exitDy=0;exitPerimeter=0;entryX=0.585;entryY=-0.008;entryDx=0;entryDy=0;entryPerimeter=0;" edge="1" parent="1" source="Fmby5t4xRILtHEaOLWbx-9" target="Fmby5t4xRILtHEaOLWbx-15">
          <mxGeometry width="160" relative="1" as="geometry">
            <mxPoint x="300" y="340" as="sourcePoint" />
            <mxPoint x="460" y="340" as="targetPoint" />
          </mxGeometry>
        </mxCell>
        <mxCell id="Fmby5t4xRILtHEaOLWbx-37" value="Use" style="endArrow=open;endSize=12;dashed=1;html=1;rounded=0;exitX=0.169;exitY=1.002;exitDx=0;exitDy=0;exitPerimeter=0;entryX=0.637;entryY=0.019;entryDx=0;entryDy=0;entryPerimeter=0;" edge="1" parent="1" source="Fmby5t4xRILtHEaOLWbx-11" target="Fmby5t4xRILtHEaOLWbx-13">
          <mxGeometry width="160" relative="1" as="geometry">
            <mxPoint x="60" y="390" as="sourcePoint" />
            <mxPoint x="220" y="390" as="targetPoint" />
          </mxGeometry>
        </mxCell>
        <mxCell id="Fmby5t4xRILtHEaOLWbx-38" value="Use" style="endArrow=open;endSize=12;dashed=1;html=1;rounded=0;exitX=0.111;exitY=0.222;exitDx=0;exitDy=0;exitPerimeter=0;entryX=0.14;entryY=0.083;entryDx=0;entryDy=0;entryPerimeter=0;" edge="1" parent="1" source="Fmby5t4xRILtHEaOLWbx-21" target="Fmby5t4xRILtHEaOLWbx-23">
          <mxGeometry width="160" relative="1" as="geometry">
            <mxPoint x="90" y="680" as="sourcePoint" />
            <mxPoint x="250" y="680" as="targetPoint" />
          </mxGeometry>
        </mxCell>
        <mxCell id="Fmby5t4xRILtHEaOLWbx-39" value="Use" style="endArrow=open;endSize=12;dashed=1;html=1;rounded=0;exitX=0.987;exitY=0.646;exitDx=0;exitDy=0;exitPerimeter=0;entryX=0.015;entryY=0.174;entryDx=0;entryDy=0;entryPerimeter=0;" edge="1" parent="1" source="Fmby5t4xRILtHEaOLWbx-21" target="Fmby5t4xRILtHEaOLWbx-19">
          <mxGeometry width="160" relative="1" as="geometry">
            <mxPoint x="390" y="570" as="sourcePoint" />
            <mxPoint x="550" y="570" as="targetPoint" />
          </mxGeometry>
        </mxCell>
        <mxCell id="Fmby5t4xRILtHEaOLWbx-40" value="Use" style="endArrow=open;endSize=12;dashed=1;html=1;rounded=0;exitX=0.99;exitY=0.401;exitDx=0;exitDy=0;exitPerimeter=0;entryX=0.639;entryY=0.039;entryDx=0;entryDy=0;entryPerimeter=0;" edge="1" parent="1" source="Fmby5t4xRILtHEaOLWbx-21" target="Fmby5t4xRILtHEaOLWbx-17">
          <mxGeometry width="160" relative="1" as="geometry">
            <mxPoint x="400" y="560" as="sourcePoint" />
            <mxPoint x="560" y="560" as="targetPoint" />
          </mxGeometry>
        </mxCell>
        <mxCell id="Fmby5t4xRILtHEaOLWbx-41" value="Use" style="endArrow=open;endSize=12;dashed=1;html=1;rounded=0;exitX=0.002;exitY=0.178;exitDx=0;exitDy=0;exitPerimeter=0;entryX=0.102;entryY=0.005;entryDx=0;entryDy=0;entryPerimeter=0;" edge="1" parent="1" source="Fmby5t4xRILtHEaOLWbx-15" target="Fmby5t4xRILtHEaOLWbx-27">
          <mxGeometry width="160" relative="1" as="geometry">
            <mxPoint x="20" y="580" as="sourcePoint" />
            <mxPoint x="180" y="580" as="targetPoint" />
          </mxGeometry>
        </mxCell>
        <mxCell id="Fmby5t4xRILtHEaOLWbx-42" value="Use" style="endArrow=open;endSize=12;dashed=1;html=1;rounded=0;exitX=0.007;exitY=0.68;exitDx=0;exitDy=0;exitPerimeter=0;entryX=0.585;entryY=-0.008;entryDx=0;entryDy=0;entryPerimeter=0;" edge="1" parent="1" source="Fmby5t4xRILtHEaOLWbx-13" target="Fmby5t4xRILtHEaOLWbx-25">
          <mxGeometry width="160" relative="1" as="geometry">
            <mxPoint x="240" y="720" as="sourcePoint" />
            <mxPoint x="400" y="720" as="targetPoint" />
          </mxGeometry>
        </mxCell>
        <mxCell id="Fmby5t4xRILtHEaOLWbx-43" value="Use" style="endArrow=open;endSize=12;dashed=1;html=1;rounded=0;exitX=0.604;exitY=0.034;exitDx=0;exitDy=0;exitPerimeter=0;entryX=0.591;entryY=0.054;entryDx=0;entryDy=0;entryPerimeter=0;" edge="1" parent="1" source="Fmby5t4xRILtHEaOLWbx-23" target="Fmby5t4xRILtHEaOLWbx-29">
          <mxGeometry width="160" relative="1" as="geometry">
            <mxPoint x="390" y="780" as="sourcePoint" />
            <mxPoint x="550" y="780" as="targetPoint" />
          </mxGeometry>
        </mxCell>
        <mxCell id="Fmby5t4xRILtHEaOLWbx-44" value="Use" style="endArrow=open;endSize=12;dashed=1;html=1;rounded=0;exitX=0.426;exitY=0.046;exitDx=0;exitDy=0;exitPerimeter=0;entryX=0.385;entryY=0.073;entryDx=0;entryDy=0;entryPerimeter=0;" edge="1" parent="1" source="Fmby5t4xRILtHEaOLWbx-17" target="Fmby5t4xRILtHEaOLWbx-31">
          <mxGeometry width="160" relative="1" as="geometry">
            <mxPoint x="30" y="570" as="sourcePoint" />
            <mxPoint x="190" y="570" as="targetPoint" />
          </mxGeometry>
        </mxCell>
        <mxCell id="Fmby5t4xRILtHEaOLWbx-45" value="Use" style="endArrow=open;endSize=12;dashed=1;html=1;rounded=0;exitX=0.41;exitY=1.018;exitDx=0;exitDy=0;exitPerimeter=0;entryX=1.01;entryY=0.63;entryDx=0;entryDy=0;entryPerimeter=0;" edge="1" parent="1" source="Fmby5t4xRILtHEaOLWbx-19" target="Fmby5t4xRILtHEaOLWbx-25">
          <mxGeometry width="160" relative="1" as="geometry">
            <mxPoint x="10" y="810" as="sourcePoint" />
            <mxPoint x="170" y="810" as="targetPoint" />
          </mxGeometry>
        </mxCell>
      </root>
    </mxGraphModel>
  </diagram>
</mxfile>
